<?xml version="1.0" standalone="no"?>
<!DOCTYPE svg PUBLIC "-//W3C//DTD SVG 1.0//EN" "http://www.w3.org/TR/2001/REC-SVG-20010904/DTD/svg10.dtd">
<svg xmlns="http://www.w3.org/2000/svg" xmlns:xlink="http://www.w3.org/1999/xlink" id="body_1" width="1283" height="1216">

<g transform="matrix(0.32998973 0 0 0.33007604 0 0)">
	<g transform="matrix(1 0 0 1 -481 -570)">
	</g>
    <path transform="matrix(1 0 0 1 -481 -570)"  d="M3420.62 1768.86C 3199.32 1396.75 2794.98 1169.27 2332.7603 1169.27C 1633.0203 1169.27 1087.4203 1707.7 1087.4203 2411.99C 1087.4203 3116.28 1633.0203 3708.8901 2332.7603 3708.8901C 2794.9802 3708.8901 3199.3203 3438.07 3420.62 3065.9602L3420.62 3065.9602L4054.86 3065.9602C 3792.75 3760.4001 3114.6602 4253.99 2332.7603 4253.99C 1322.0203 4253.99 480.9873 3429.3003 480.9873 2411.9902C 480.9873 1394.6802 1322.0203 569.99023 2332.7603 569.99023C 3114.6602 569.99023 3792.7502 1074.4182 4054.8604 1768.8583L4054.8604 1768.8583L3420.6204 1768.8583L3420.62 1768.86zM4369 2195.29L3730.02 2650.37L2928.36 2650.37C 2834.99 2891.25 2601.27 3062.11 2327.52 3062.11C 1971.63 3062.11 1683.13 2773.4702 1683.13 2417.4102C 1683.13 2061.35 1971.63 1772.7102 2327.52 1772.7102C 2605.3901 1772.7102 2842.1602 1948.6702 2932.63 2195.2903L2932.63 2195.2903L4369 2195.2903z" stroke="none" fill="#000000" fill-rule="nonzero" />
</g>
</svg>